#!OML:ASF F:\VICON\USERDATA\INSTALL\rory3\rory3.ASF
:FULLY-SPECIFIED
:DEGREES
18
root -7.367740078642833 17.591813119067695 3.923309629156904 -8.207541343489197 48.17959261058273 -20.103011423883814
lfemur -7.582081344903829 19.459988576654375 11.494483911711416
ltibia 38.99308905984027
lfoot -3.832009302345103 11.254087178129584
ltoes -38.32688708120041
rfemur -29.178990263980566 9.626580058897677 29.527486209841435
rtibia 30.99809477874783
rfoot -5.385551340026376 22.581488136845394
rtoes 22.514998010918667
lowerback 2.441262759978719 -6.6796604362529255 -16.067987932088283
upperback 3.482648304912974 -8.854610657675009 -1.6355833107168036
thorax 4.567325250895691 -4.861209970453827 6.799210925219733
lowerneck -5.488229278507483 17.115488824124284 5.615399827016124
upperneck 24.15309159767402 26.958088369939215 -11.866189336662202
head 11.202890731580371 11.764888737664823 -1.609344796412453
lclavicle -7.014204926979148e-15 -5.153635741169035e-15
lhumerus 70.81099784653621 -64.67268727469252 44.75761010860125
lradius 23.732409074756468
lwrist 5.24029997974846
lhand 2.1412683708525933 19.213200275667774
lfingers 7.125020000000003
lthumb -152.3600116560652 227.20300980879213
rclavicle -7.014204926979148e-15 -5.153635741169035e-15
rhumerus -7.651667080811649 -6.222433252593268 -93.27598735081409
rradius 78.44259393784895
rwrist -47.82498599838985
rhand -64.41098866500491 8.955946482537898
rfingers 7.125020000000003
rthumb -36.34018869091932 -17.276295118355915
19
root -7.360370192385588 17.60071261920844 4.093469000785686 -8.441841314392121 46.37939325421445 -19.506211499553558
lfemur -6.149202573909269 18.920888883894097 12.632482869448598
ltibia 40.14448750967204
lfoot -1.6469704200852497 10.891587330858922
ltoes -37.914887188143965
rfemur -27.699590946528694 9.737079935459043 30.428984943168732
rtibia 30.85859494046297
rfoot -4.469051863918192 24.353687468557403
rtoes 25.838795634724303
lowerback 3.247651373880097 -7.218909883235581 -16.927187263996487
upperback 3.060888943430955 -9.756079981224248 -2.039052452695774
thorax 3.9527067014464174 -5.2493293654759325 6.877810767586582
lowerneck -4.665640761771783 17.849988392282967 5.513460173676632
upperneck 22.65089292660582 27.773188032252577 -12.191488930670634
head 10.608992294794952 12.227188328329147 -1.6899840904690957
lclavicle -7.014205650791101e-15 -5.1536359388407356e-15
lhumerus 74.95709657545159 -63.076487758691464 43.981410512020105
lradius 24.2290087753276
lwrist 4.285180536024495
lhand -1.6874385057661136 15.68790212567308
lfingers 7.125020000000003
lthumb -156.0270085414374 224.21100996967994
rclavicle -7.014205650791101e-15 -5.1536359388407356e-15
rhumerus -6.192947417974786 -7.399462771164297 -91.42758839607832
rradius 82.76109236876253
rwrist -44.02558773221292
rhand -64.67478851046565 14.933302308415064
rfingers 7.125020000000003
rthumb -36.58988853867371 -11.235999250515794
20
root -7.353060305202352 17.602212534962497 4.2593583881828305 -8.379371322150135 44.59219389319829 -19.02261156087056
lfemur -5.056703510964953 18.792188957241905 13.687181903477942
ltibia 41.03688630820417
lfoot 0.7392723592501973 10.546687476172895
ltoes -35.658987773710436
rfemur -26.70659140466734 9.818739844237342 31.411783562263576
rtibia 30.757395057778925
rfoot -3.0025727021908537 25.78778692776531
rtoes 29.437793061788636
lowerback 3.4490710276605334 -7.868779216774033 -17.29128698088167
upperback 2.682929515638529 -10.68858928148143 -2.3924917010687468
thorax 3.65712739903807 -5.660818724070327 6.664271195843368
lowerneck -4.220381564648362 18.715287883539318 4.989341956016328
upperneck 21.13729426562272 28.736887633002915 -12.298988796504986
head 10.011293868011581 12.734687878971917 -1.609684793436006
lclavicle -7.0142064110292535e-15 -5.153636154482848e-15
lhumerus 77.73119572498588 -61.15578834108487 44.605110187860916
lradius 24.97280832684754
lwrist 3.0038012823193085
lhand -6.307904736483591 12.842503618880773
lfingers 7.125020000000003
lthumb -160.4640047727973 221.88101009496984
rclavicle -7.0142064110292535e-15 -5.153636154482848e-15
rhumerus -3.8248579653262382 -8.401822361178878 -89.82778930076
rradius 86.68819094188751
rwrist -39.061489997536555
rhand -64.7503884661777 15.622501827131444
rfingers 7.125020000000003
rthumb -36.66148849501823 -10.528699734378629
21
root -7.259125282654495 17.586334525012468 3.616469876136475 -17.8735898856106 35.457190830167306 -28.180221000026194
lfemur -7.851347532467168 15.232174320380414 7.0025670467660905
ltibia 37.31175921943458
lfoot 1.0300196512534043 4.847346526979553
ltoes -18.133342793138258
rfemur -25.727830694256927 9.631812745205552 26.673774267240063
rtibia 31.91951836085625
rfoot -2.107508596887431 23.323490199937204
rtoes 21.651623524543204
lowerback 1.5104492297200354 -5.772503741803295 -14.425621077326825
upperback -0.18567984848975527 -7.7046124140275705 -1.966430594440393
thorax 1.7841852858040461 -4.014179372716039 4.697530804987101
lowerneck -5.866685554629233 15.12943142756251 2.069943986989922
upperneck 18.42362760034133 23.746528453105054 -10.936662562005079
head 9.255586301607316 10.237149274997321 -1.2115824951671403
lclavicle -6.7712829252333065e-15 -4.957243776800602e-15
lhumerus 85.4854210508081 -44.10752051585013 42.9044836284547
lradius 29.176044876641985
lwrist 4.070273963785645
lhand -7.307344544675228 2.1390344410240836
lfingers 7.125020000000003
lthumb -161.42903596852142 302.285951895213
rclavicle -6.7712829252333065e-15 -4.957243776800602e-15
rhumerus 22.53148899850258 -5.904007555267535 -79.61628123542307
rradius 87.11352214714577
rwrist -23.14446300651949
rhand -59.26799328956314 22.22734169866639
rfingers 7.125020000000003
rthumb -31.425920110052395 -5.099454474640697
22
root -7.257019759287975 17.584547073446856 3.794378998408169 -16.434864823311372 34.700551737188995 -26.84730342621404
lfemur -6.586201316163592 15.365323864812048 7.367203562684612
ltibia 37.02306125414984
lfoot 0.921043821367558 5.807087558042259
ltoes -17.65513799140295
rfemur -25.896001361983352 9.873790282347434 26.95983765367331
rtibia 32.32582479797588
rfoot -2.4212666660090516 24.665842793206203
rtoes 22.917195596449375
lowerback 1.5481039000995462 -6.380781357379195 -14.954706765714572
upperback -0.46607636395520924 -8.51310450779377 -2.3414930086610646
thorax 1.5608375613827423 -4.3544797961901915 4.659588881423414
lowerneck -5.460895033011085 16.02126546478775 1.8186183442782236
upperneck 17.142580636471127 24.732006084079895 -11.126765672043334
head 8.787459310117246 10.77175854643659 -1.2134858669649695
lclavicle -6.630282875293357e-15 -4.872359737437924e-15
lhumerus 88.13330756840827 -43.11181151813775 42.56688981435671
lradius 29.457930627929443
lwrist 3.710083181033024
lhand -8.683602470358814 1.3761343231714207
lfingers 7.125020000000003
lthumb -162.7519037457042 291.747800870946
rclavicle -6.6302828752933565e-15 -4.872359737437924e-15
rhumerus 23.895235534323533 -6.665748451989872 -78.48439142635131
rradius 89.54679439024555
rwrist -19.62549688995489
rhand -59.89841293019662 25.14473568822005
rfingers 7.125020000000003
rthumb -32.02580673994178 -2.161323265940176
23
root -7.253158260192482 17.587000322757042 4.055443226199689 -10.815999441077878 34.77505162001182 -21.200869705938487
lfemur -5.01697765310052 15.620724150836152 7.867465530559137
ltibia 36.50157488660911
lfoot 1.5609572334545359 7.534786842560301
ltoes -17.32566778125033
rfemur -26.192334563487268 10.678653823455926 27.376344366463186
rtibia 33.023497467862406
rfoot -2.6547798840955235 26.429147833261062
rtoes 25.17100792051844
lowerback 1.843437607066151 -6.803646953846862 -15.390570906835617
upperback -0.62290006547352 -9.109892760769325 -2.567132930744841
thorax 1.3310751474415308 -4.6277294747183575 4.727608667661567
lowerneck -5.052484081859168 16.96023617836867 1.5422150003649948
upperneck 15.840149337757444 25.82371591370848 -11.17838260289611
head 8.29629015963445 11.385482803426704 -1.1901728274093364
lclavicle -5.569501746308487e-15 -4.1338948978647465e-15
lhumerus 91.00648121042241 -41.86170459549995 43.4926668910566
lradius 29.998209568071804
lwrist 3.3730976592554427
lhand -9.956044031391153 1.0173347092143281
lfingers 7.125020000000003
lthumb -163.9782347028187 285.8614095357718
rclavicle -5.569501746308487e-15 -4.1338948978647465e-15
rhumerus 25.985932204666053 -7.608969730601709 -76.70719197051369
rradius 92.53839474139447
rwrist -16.451720262053065
rhand -59.89327233140581 27.330413036546695
rfingers 7.125020000000003
rthumb -32.02514276756878 -0.02999734210549576
